<svg width="16" height="16" viewBox="0 0 16 16" fill="none" xmlns="http://www.w3.org/2000/svg">
<path d="M6.38968 12.2666C7.01798 12.3302 7.50882 12.8608 7.50882 13.5059C7.50859 14.1936 6.95052 14.7519 6.26273 14.752C5.61793 14.7517 5.08724 14.2608 5.02347 13.6328L5.01663 13.5059L5.02347 13.3779C5.08747 12.7502 5.61811 12.26 6.26273 12.2598L6.38968 12.2666ZM12.7637 12.2666C13.3918 12.3304 13.8828 12.8609 13.8828 13.5059C13.8826 14.1935 13.3244 14.7518 12.6367 14.752C11.9918 14.752 11.4613 14.2609 11.3975 13.6328L11.3907 13.5059L11.3975 13.3779C11.4615 12.75 11.9919 12.2598 12.6367 12.2598L12.7637 12.2666ZM4.06155 1.26074C4.32742 1.30809 4.54413 1.51367 4.59866 1.78613L5.07132 4.14746H14.3741C14.5726 4.14756 14.7611 4.23665 14.8877 4.38965C15.0141 4.54268 15.0665 4.74446 15.0293 4.93945L14.1026 9.80078L14.1016 9.80566C14.0181 10.2257 13.7887 10.6035 13.4551 10.8721C13.1247 11.1379 12.7119 11.2796 12.2881 11.2744L6.65628 11.2754V11.2744C6.23261 11.2795 5.81961 11.1378 5.48929 10.8721C5.15597 10.6037 4.92749 10.2263 4.84378 9.80664L3.39847 2.58398H1.62698C1.2589 2.58398 0.960168 2.28503 0.959991 1.91699C0.959991 1.5488 1.25879 1.25 1.62698 1.25H3.94437L4.06155 1.26074ZM6.1514 9.54492V9.5459C6.17396 9.65884 6.23557 9.7607 6.32523 9.83301C6.41512 9.90524 6.52828 9.94457 6.64359 9.94238L6.65628 9.94141H12.3018V9.94238C12.417 9.9444 12.5294 9.90526 12.6192 9.83301C12.709 9.76065 12.7714 9.65905 12.794 9.5459L13.5694 5.48047H5.33792L6.1514 9.54492Z" fill="#FCFCFC"/>
</svg>
