<svg width="16" height="16" viewBox="0 0 16 16" fill="none" xmlns="http://www.w3.org/2000/svg">
<path d="M13.703 0C14.0403 1.73388e-05 14.3459 0.038575 14.6366 0.166992C14.9238 0.293991 15.1373 0.484095 15.326 0.672852C15.8075 1.1544 15.9989 1.73071 15.9989 2.29688V14.1094C15.9988 14.2737 15.9365 14.4218 15.8377 14.5381C15.7236 14.8303 15.5521 15.1001 15.326 15.3262C14.8955 15.7567 14.3108 15.998 13.702 15.998H2.29672C1.68798 15.998 1.10326 15.7565 0.672699 15.3262C0.242175 14.8956 -6.62667e-05 14.311 -0.000152588 13.7021V2.29688C-0.000152588 1.68792 0.242099 1.10345 0.672699 0.672852C0.899118 0.446433 1.16809 0.272633 1.46078 0.158203C1.57688 0.0601643 1.72576 3.91978e-05 1.8895 0H13.703ZM2.20102 1.33789C1.98051 1.35966 1.77303 1.45729 1.61508 1.61523C1.43453 1.79579 1.33383 2.04154 1.33383 2.29688V13.7021C1.33392 13.9572 1.43483 14.2024 1.61508 14.3828C1.7956 14.5632 2.04154 14.665 2.29672 14.665H13.702C13.9572 14.665 14.2022 14.5633 14.3827 14.3828C14.5631 14.2023 14.6648 13.9574 14.6649 13.7021C14.6649 13.699 14.6658 13.6955 14.6659 13.6924V2.29688C14.6659 2.04839 14.5908 1.82241 14.3836 1.61523C14.2284 1.46004 14.1552 1.41223 14.0975 1.38672C14.043 1.36265 13.9445 1.334 13.703 1.33398H2.29672L2.20102 1.33789Z" fill="#2D3440"/>
</svg>
