<svg width="20" height="20" viewBox="0 0 20 20" fill="none" xmlns="http://www.w3.org/2000/svg">
<path d="M14.9424 4.11157C15.2027 3.85128 15.6254 3.8514 15.8857 4.11157C16.1461 4.37192 16.1461 4.79458 15.8857 5.05493L10.9414 9.99829L15.8857 14.9426C16.1461 15.203 16.1461 15.6256 15.8857 15.886C15.6254 16.1463 15.2027 16.1463 14.9424 15.886L9.99805 10.9417L5.05469 15.886C4.79434 16.1463 4.37168 16.1463 4.11133 15.886C3.85116 15.6256 3.85104 15.2029 4.11133 14.9426L9.05469 9.99829L4.11133 5.05493C3.85109 4.79457 3.85102 4.37188 4.11133 4.11157C4.37164 3.85126 4.79433 3.85134 5.05469 4.11157L9.99805 9.05493L14.9424 4.11157Z" fill="#2D3440"/>
</svg>
