<svg width="13" height="13" viewBox="0 0 13 13" fill="none" xmlns="http://www.w3.org/2000/svg">
<path fill-rule="evenodd" clip-rule="evenodd" d="M6.20857 1.33333C3.51605 1.33333 1.33333 3.51605 1.33333 6.20857C1.33333 8.90109 3.51605 11.0838 6.20857 11.0838C8.90109 11.0838 11.0838 8.90109 11.0838 6.20857C11.0838 3.51605 8.90109 1.33333 6.20857 1.33333ZM0 6.20857C0 2.77967 2.77967 0 6.20857 0C9.63747 0 12.4171 2.77967 12.4171 6.20857C12.4171 9.63747 9.63747 12.4171 6.20857 12.4171C2.77967 12.4171 0 9.63747 0 6.20857ZM6.20838 5.54165C6.57657 5.54165 6.87505 5.84013 6.87505 6.20832V8.42508C6.87505 8.79327 6.57657 9.09175 6.20838 9.09175C5.84019 9.09175 5.54172 8.79327 5.54172 8.42508V6.20832C5.54172 5.84013 5.84019 5.54165 6.20838 5.54165ZM6.20838 3.3249C5.84019 3.3249 5.54172 3.62338 5.54172 3.99157C5.54172 4.35976 5.84019 4.65823 6.20838 4.65823H6.21422C6.58241 4.65823 6.88088 4.35976 6.88088 3.99157C6.88088 3.62338 6.58241 3.3249 6.21422 3.3249H6.20838Z" fill="#2D3440"/>
</svg>
