<svg width="16" height="16" viewBox="0 0 16 16" fill="none" xmlns="http://www.w3.org/2000/svg">
<path d="M12.6639 1.33C13.1941 1.33017 13.7031 1.54102 14.078 1.91594C14.4528 2.2909 14.6639 2.79984 14.6639 3.33V12.664C14.6638 13.1942 14.4529 13.7031 14.078 14.078C13.7031 14.453 13.1941 14.6638 12.6639 14.664H9.99695C9.62887 14.664 9.33013 14.365 9.32996 13.997C9.32996 13.6288 9.62876 13.33 9.99695 13.33H12.6639C12.8405 13.3298 13.0098 13.2596 13.1346 13.1347C13.2595 13.0098 13.3298 12.8406 13.33 12.664V3.33C13.3299 3.15346 13.2594 2.98421 13.1346 2.8593C13.0098 2.73443 12.8405 2.66416 12.6639 2.66399H9.99695C9.62887 2.66399 9.33013 2.36503 9.32996 1.99699C9.32996 1.6288 9.62876 1.33 9.99695 1.33H12.6639ZM6.19128 4.19133C6.45153 3.9311 6.87428 3.93129 7.13464 4.19133L10.4628 7.52043C10.4957 7.55267 10.5249 7.58843 10.5507 7.62688C10.5582 7.63808 10.5634 7.6505 10.5702 7.66203C10.6279 7.76075 10.6639 7.87444 10.6639 7.99699C10.6639 8.0722 10.6479 8.14341 10.6249 8.21086C10.6205 8.22382 10.6174 8.2372 10.6122 8.24992C10.6018 8.27518 10.5884 8.2986 10.5751 8.32219C10.567 8.33651 10.5599 8.35134 10.5507 8.36516C10.5261 8.40196 10.4998 8.43751 10.4686 8.46867L7.13464 11.8007C6.87429 12.0611 6.45163 12.0611 6.19128 11.8007C5.93162 11.5404 5.93131 11.1185 6.19128 10.8583L8.38562 8.66399H1.99695C1.62887 8.66399 1.33013 8.36503 1.32996 7.99699C1.32996 7.6288 1.62876 7.33 1.99695 7.33H8.38757L6.19128 5.13469C5.93124 4.87431 5.93104 4.45158 6.19128 4.19133Z" fill="#2D3440"/>
</svg>
